<?xml version="1.0" encoding="UTF-8"?>
<svg id="Capa_1" data-name="Capa 1" xmlns="http://www.w3.org/2000/svg" viewBox="0 0 1425.45 622.32">
  <defs>
    <style>
      .cls-1 {
        fill: #050006;
      }
    </style>
  </defs>
  <path class="cls-1" d="M467.25,320.72c-8.44,0-15.29,6.84-15.29,15.29h0c0,8.44,6.84,15.29,15.29,15.29s15.29-6.84,15.29-15.29h0c0-8.44-6.84-15.29-15.29-15.29Z"/>
  <path class="cls-1" d="M83.78,365.49c-25.55,0-45.9,8.91-61.05,26.71C7.58,410,0,433.93,0,463.97c0,28.04,7.19,50.38,21.57,67.02,14.37,16.63,33.78,24.95,58.23,24.95,29.3,0,50.93-9.4,64.86-28.2,13.93-18.8,20.9-42.62,20.9-71.45s-7.91-52.4-23.72-67.76c-15.82-15.36-35.17-23.04-58.06-23.04ZM123.17,507.44c-7.33,15.07-20.84,22.61-40.55,22.61-17.95,0-31.06-6.34-39.32-19.02-8.26-12.68-12.39-28.53-12.39-47.56s4.13-36.7,12.39-50.72c8.26-14.02,21.47-21.03,39.65-21.03,20.48,0,34.91,8.23,43.28,24.69,5.29,10.46,7.93,24.03,7.93,40.71,0,18.47-3.66,35.24-10.99,50.31Z"/>
  <path class="cls-1" d="M253.3,366.66c-11.92,0-22.45,4.32-31.57,12.95-9.14,8.63-14.87,15.96-17.21,21.97v-30.91h-28.56v178.93h30.07v-102.91c0-12.7,4.06-23.92,12.2-33.67,8.13-9.74,19.76-14.62,34.92-14.62,1.78,0,3.43.06,4.92.17,1.5.12,3.15.34,4.93.67v-31.74c-3.23-.34-5.51-.56-6.85-.67-1.33-.11-2.28-.17-2.84-.17Z"/>
  <path class="cls-1" d="M362.44,365.99c-10.73,0-20.69,2.25-29.85,6.76-9.17,4.51-17.05,11.06-23.65,19.63v-89.05h-29.24v246.25h27.73v-22.89c6.37,8.58,12.35,14.82,17.94,18.72,9.39,6.57,20.9,9.85,34.55,9.85,24.37,0,43.43-9.35,57.18-28.06s20.63-42.21,20.63-70.5c0-29.85-6.96-52.43-20.88-67.74-13.92-15.31-32.06-22.97-54.43-22.97ZM394.69,509.33c-8.1,12.92-20.31,19.38-36.63,19.38-21.68,0-36.49-9.86-44.42-29.58-4.25-10.47-6.37-24.11-6.37-40.93,0-23.27,5.17-39.98,15.51-50.12,10.33-10.14,22.37-15.21,36.12-15.21,15.76,0,27.69,6.18,35.79,18.55,8.1,12.36,12.15,27.95,12.15,46.77,0,21.16-4.05,38.2-12.15,51.12Z"/>
  <rect class="cls-1" x="451.96" y="371.51" width="30.57" height="178.09"/>
  <path class="cls-1" d="M550.71,320.72h-30.41v49.95h-24.22v24.56h24.22v118.44c0,11.48,2.51,20.8,7.52,27.99,5.01,7.18,14.53,10.78,28.57,10.78,4.34,0,8.38-.23,12.11-.67,3.73-.44,7.32-1.17,10.78-2.17v-23.89c-2.23.3-4.18.48-5.85.56-1.67.07-3.23.11-4.67.11-5.46,0-9.35-.61-11.7-1.84-4.23-2.12-6.35-6.29-6.35-12.53v-116.77h28.57v-24.56h-28.57v-49.95Z"/>
  <path class="cls-1" d="M746.69,529.21c-4.13,0-6.82-.94-8.11-2.84-1.28-1.89-1.92-4.4-1.92-7.51v-103.09c0-16.93-6.51-29.4-19.52-37.43-13.13-8.02-30.21-12.03-51.23-12.03-18.13,0-34.07,4.32-47.8,12.99-13.74,8.66-20.89,24.04-21.44,46.15h28.06c1.11-9.29,3.5-16.28,7.17-20.99,6.56-8.51,17.68-12.76,33.35-12.76,13.56,0,23.98,2.32,31.26,6.96,7.28,4.64,10.92,12.1,10.92,22.39,0,5.03-.67,8.89-2,11.57-2.34,4.89-6.96,7.78-13.86,8.67l-47.95,6.01c-16.82,2.12-30.4,7.73-40.76,16.86-10.36,9.12-15.54,21.97-15.54,38.54,0,15.13,5.26,27.73,15.79,37.79,10.53,10.07,24.08,15.1,40.68,15.1,13.81,0,26.45-2.95,37.93-8.85,11.47-5.9,20.27-12.86,26.39-20.88,1.01,7.13,2.73,12.64,5.18,16.54,4.68,7.35,12.2,11.02,22.56,11.02,4.23,0,7.57-.17,10.02-.5s6.01-1.17,10.69-2.51v-22.21c-1.89.33-3.68.58-5.35.75s-3.18.25-4.51.25ZM706.6,482.84c0,18.46-8.36,31.75-25.06,39.87-9.92,4.89-20.16,7.33-30.74,7.33-8.69,0-16.21-2.5-22.55-7.5-6.35-5-9.52-11.84-9.52-20.5,0-11.45,4.65-19.78,13.95-25.01,5.49-3.11,13.68-5.39,24.58-6.83l18.17-2.34c5.56-.67,11.23-1.78,17.01-3.35,5.78-1.56,10.5-3.51,14.17-5.86v24.18Z"/>
  <g>
    <rect class="cls-1" x="773.1" y="305.55" width="30.07" height="245.42"/>
    <rect class="cls-1" x="863.31" y="305.56" width="30.07" height="245.42"/>
  </g>
  <path class="cls-1" d="M1067.25,431.7c-2-12.03-5.98-22.55-11.96-31.57-6.2-9.47-15.22-17.18-27.07-23.14-11.84-5.96-24.07-8.94-36.69-8.94-25.02,0-45.28,8.97-60.77,26.9-15.5,17.93-23.25,41.26-23.25,70s7.69,51.87,23.08,68.08c15.38,16.21,34.14,24.31,56.28,24.31,9.07,0,17.19-.89,24.37-2.67,13.37-3.12,24.59-9.13,33.66-18.04,5.41-5.12,10.32-11.72,14.72-19.8,4.4-8.07,6.98-15.4,7.77-21.97h-29.57c-2.17,7.95-5.85,14.94-11.04,20.98-9.28,10.4-21.72,15.61-37.3,15.61-16.68,0-29.01-5.5-36.96-16.5-7.96-11-12.21-25.61-12.76-43.81h130.14c0-18.04-.89-31.18-2.65-39.42ZM940.43,447.23c.56-15.37,5.47-28.04,14.75-38,9.28-9.97,20.76-14.96,34.46-14.96,19.11,0,32.75,7.25,40.92,21.72,4.42,7.8,7.23,18.21,8.45,31.24h-98.57Z"/>
  <path class="cls-1" d="M1237.49,530.6c-4.12,0-6.82-.94-8.11-2.84-1.28-1.89-1.92-4.4-1.92-7.51v-103.09c0-16.93-6.51-29.4-19.52-37.43-13.12-8.02-30.2-12.03-51.23-12.03-18.12,0-34.07,4.32-47.8,12.99-13.74,8.66-20.89,24.04-21.44,46.15h28.07c1.11-9.29,3.5-16.28,7.16-20.99,6.56-8.51,17.68-12.76,33.36-12.76,13.56,0,23.97,2.32,31.26,6.96,7.27,4.64,10.92,12.1,10.92,22.39,0,5.03-.67,8.89-2,11.57-2.34,4.89-6.96,7.78-13.87,8.67l-47.95,6.01c-16.82,2.12-30.4,7.73-40.77,16.86-10.36,9.12-15.54,21.97-15.54,38.54,0,15.13,5.26,27.73,15.79,37.79,10.53,10.07,24.08,15.1,40.68,15.1,13.81,0,26.45-2.95,37.92-8.85,11.47-5.9,20.28-12.86,26.39-20.88,1.01,7.13,2.73,12.64,5.19,16.54,4.67,7.35,12.19,11.02,22.55,11.02,4.23,0,7.57-.17,10.03-.5,2.44-.33,6.01-1.17,10.69-2.51v-22.21c-1.9.33-3.68.58-5.35.75-1.67.17-3.18.25-4.51.25ZM1197.4,484.23c0,18.46-8.35,31.75-25.06,39.87-9.92,4.89-20.15,7.33-30.74,7.33-8.69,0-16.21-2.5-22.55-7.5-6.35-5-9.53-11.84-9.53-20.5,0-11.45,4.65-19.78,13.95-25.01,5.5-3.11,13.68-5.39,24.58-6.83l18.17-2.34c5.56-.67,11.23-1.78,17.01-3.35,5.77-1.56,10.5-3.51,14.17-5.86v24.18Z"/>
  <path class="cls-1" d="M1404.18,391.02c-14.19-15.54-31.43-23.31-51.77-23.31-13.74,0-25.68,3.34-35.84,10.02-7.14,4.46-13.74,10.75-19.76,18.88v-23.72h-29.4v249.43h30.07v-91.38c6.6,8.13,12.58,13.87,17.96,17.21,9.16,5.91,20.51,8.86,34.04,8.86,17.21,0,32.31-5.29,45.28-15.87,20.46-16.71,30.69-44.55,30.69-83.53,0-28.84-7.08-51.04-21.26-66.57ZM1380.54,513.14c-9.33,11.75-21.04,17.63-35.12,17.63-20.79,0-35.09-9.24-42.91-27.73-4.14-9.69-6.21-21.44-6.21-35.25,0-17.16,2.07-31.3,6.21-42.44,7.71-20.83,22.01-31.24,42.91-31.24s35.1,9.86,42.92,29.57c4.14,10.25,6.21,22.5,6.21,36.76,0,23.38-4.67,40.96-14,52.7Z"/>
  <g>
    <path class="cls-1" d="M905.42,0c-65.61,0-119.15,51.47-122.59,116.16h55.61c3.56,0,6.43,2.87,6.43,6.55s-2.87,6.43-6.43,6.43h-55.61c3.45,64.69,56.99,116.27,122.59,116.27s122.71-55.04,122.71-122.71S973.21,0,905.42,0Z"/>
    <path class="cls-1" d="M728.2,116.16h54.58c-3.22-36.99-34.24-65.95-72.04-65.95-39.98,0-72.39,32.4-72.39,72.5s32.4,72.38,72.39,72.38c37.8,0,68.82-28.95,72.04-65.95h-54.58c-3.68,0-6.55-2.87-6.55-6.43s2.87-6.55,6.55-6.55Z"/>
  </g>
</svg>