<?xml version="1.0" encoding="UTF-8"?>
<svg id="Capa_1" data-name="Capa 1" xmlns="http://www.w3.org/2000/svg" viewBox="0 0 2369.43 1491.85">
  <defs>
    <style>
      .cls-1 {
        fill: #050006;
      }
    </style>
  </defs>
  <path class="cls-1" d="M1623.49,0c-398.8,0-724.27,312.9-745.22,706.11h338.05c21.65,0,39.12,17.46,39.12,39.83s-17.46,39.12-39.12,39.12h-338.05c20.96,393.21,346.42,706.79,745.22,706.79s745.94-334.55,745.94-745.91S2035.57,0,1623.49,0Z"/>
  <path class="cls-1" d="M546.18,706.11h331.76c-19.56-224.88-208.15-400.88-437.92-400.88C196.96,305.22,0,502.17,0,745.94s196.96,440,440.02,440c229.77,0,418.36-176.01,437.92-400.88h-331.76c-22.35,0-39.81-17.46-39.81-39.12s17.46-39.83,39.81-39.83Z"/>
</svg>