<?xml version="1.0" encoding="UTF-8"?>
<svg id="Capa_1" data-name="Capa 1" xmlns="http://www.w3.org/2000/svg" viewBox="0 0 1886.78 320.44">
  <defs>
    <style>
      .cls-1 {
        fill: #050006;
      }
    </style>
  </defs>
  <path class="cls-1" d="M536.47,62.38c-25.68,0-46.14,8.95-61.37,26.85-15.23,17.9-22.85,41.94-22.85,72.15,0,28.19,7.23,50.65,21.68,67.37,14.45,16.72,33.96,25.08,58.53,25.08,29.46,0,51.19-9.45,65.2-28.35,14-18.9,21.01-42.84,21.01-71.82s-7.95-52.68-23.85-68.11c-15.9-15.44-35.35-23.16-58.36-23.16ZM576.07,205.06c-7.37,15.15-20.95,22.72-40.76,22.72-18.05,0-31.22-6.37-39.52-19.12-8.3-12.75-12.46-28.68-12.46-47.8s4.15-36.89,12.46-50.99c8.3-14.09,21.58-21.13,39.85-21.13,20.59,0,35.09,8.28,43.5,24.82,5.31,10.51,7.97,24.15,7.97,40.92,0,18.56-3.68,35.42-11.04,50.57Z"/>
  <path class="cls-1" d="M706.88,63.55c-11.98,0-22.56,4.34-31.74,13.01-9.19,8.68-14.95,16.04-17.3,22.08v-31.07h-28.71v179.86h30.23v-103.44c0-12.76,4.09-24.04,12.26-33.84,8.17-9.79,19.87-14.69,35.1-14.69,1.79,0,3.44.06,4.95.17,1.51.12,3.16.34,4.96.68v-31.91c-3.25-.34-5.54-.56-6.89-.68-1.34-.11-2.29-.17-2.85-.17Z"/>
  <path class="cls-1" d="M816.58,62.88c-10.79,0-20.79,2.27-30.01,6.8-9.21,4.54-17.14,11.12-23.77,19.73V-.1h-29.39v247.53h27.88v-23.01c6.41,8.62,12.42,14.89,18.04,18.81,9.44,6.6,21.01,9.91,34.73,9.91,24.5,0,43.66-9.4,57.48-28.21,13.82-18.81,20.74-42.43,20.74-70.87,0-30-7-52.7-20.99-68.1-13.99-15.39-32.23-23.09-54.71-23.09ZM848.99,206.97c-8.14,12.99-20.41,19.48-36.82,19.48-21.79,0-36.68-9.91-44.65-29.73-4.27-10.52-6.4-24.24-6.4-41.14,0-23.39,5.2-40.19,15.59-50.38,10.39-10.19,22.49-15.29,36.31-15.29,15.84,0,27.83,6.22,35.97,18.65,8.14,12.42,12.22,28.1,12.22,47.02,0,21.27-4.07,38.4-12.22,51.39Z"/>
  <path class="cls-1" d="M921.94,17.37c-8.49,0-15.37,6.88-15.37,15.37h0c0,8.49,6.88,15.37,15.37,15.37s15.37-6.88,15.37-15.37h0c0-8.49-6.88-15.37-15.37-15.37Z"/>
  <rect class="cls-1" x="906.57" y="68.43" width="30.73" height="179.01"/>
  <path class="cls-1" d="M1005.83,17.37h-30.57v50.21h-24.35v24.69h24.35v119.06c0,11.54,2.52,20.91,7.56,28.13,5.04,7.22,14.61,10.83,28.72,10.83,4.36,0,8.42-.23,12.18-.68,3.75-.45,7.36-1.17,10.83-2.18v-24.01c-2.24.3-4.2.49-5.88.56-1.68.07-3.25.11-4.7.11-5.49,0-9.4-.61-11.76-1.85-4.25-2.13-6.38-6.32-6.38-12.6v-117.38h28.72v-24.69h-28.72V17.37Z"/>
  <path class="cls-1" d="M1202.83,226.95c-4.15,0-6.86-.95-8.15-2.85-1.29-1.9-1.93-4.42-1.93-7.55v-103.62c0-17.02-6.54-29.56-19.62-37.62-13.2-8.06-30.36-12.09-51.5-12.09-18.22,0-34.24,4.35-48.05,13.05-13.81,8.7-20.99,24.16-21.55,46.39h28.21c1.12-9.34,3.52-16.37,7.2-21.1,6.59-8.55,17.77-12.82,33.52-12.82,13.63,0,24.1,2.33,31.42,6.99,7.32,4.67,10.98,12.17,10.98,22.51,0,5.06-.67,8.93-2.01,11.63-2.35,4.92-6.99,7.82-13.94,8.72l-48.2,6.04c-16.9,2.13-30.56,7.77-40.97,16.94-10.41,9.17-15.62,22.08-15.62,38.74,0,15.21,5.29,27.87,15.87,37.99,10.58,10.12,24.21,15.18,40.89,15.18,13.88,0,26.59-2.96,38.12-8.9,11.53-5.93,20.38-12.93,26.53-20.99,1.01,7.17,2.75,12.71,5.21,16.63,4.7,7.38,12.26,11.08,22.67,11.08,4.25,0,7.61-.17,10.07-.5,2.46-.33,6.04-1.18,10.75-2.52v-22.33c-1.9.33-3.69.59-5.37.75-1.68.17-3.19.25-4.53.25ZM1162.53,180.34c0,18.56-8.4,31.91-25.19,40.08-9.97,4.92-20.26,7.37-30.9,7.37-8.73,0-16.29-2.51-22.67-7.53-6.38-5.03-9.57-11.9-9.57-20.61,0-11.51,4.67-19.88,14.02-25.14,5.52-3.13,13.75-5.42,24.71-6.87l18.27-2.35c5.59-.67,11.28-1.79,17.09-3.37,5.81-1.57,10.56-3.53,14.25-5.89v24.31Z"/>
  <rect class="cls-1" x="1229.38" y="2.13" width="30.23" height="246.69"/>
  <rect class="cls-1" x="1320.06" y="2.14" width="30.23" height="246.69"/>
  <path class="cls-1" d="M1525.05,128.93c-2.01-12.09-6.01-22.67-12.02-31.74-6.23-9.52-15.3-17.27-27.21-23.26-11.9-5.99-24.2-8.98-36.88-8.98-25.15,0-45.51,9.01-61.09,27.04-15.58,18.03-23.37,41.48-23.37,70.36s7.73,52.14,23.2,68.43c15.46,16.29,34.32,24.43,56.57,24.43,9.11,0,17.28-.89,24.5-2.68,13.44-3.14,24.72-9.18,33.84-18.14,5.44-5.15,10.37-11.78,14.8-19.9,4.42-8.11,7.02-15.48,7.81-22.08h-29.72c-2.18,7.99-5.88,15.02-11.1,21.09-9.33,10.46-21.83,15.69-37.49,15.69-16.77,0-29.16-5.53-37.16-16.59-8-11.06-12.27-25.74-12.83-44.04h130.82c0-18.13-.89-31.34-2.67-39.63ZM1397.57,144.54c.56-15.45,5.5-28.18,14.82-38.2,9.33-10.02,20.87-15.03,34.63-15.03,19.21,0,32.92,7.28,41.13,21.83,4.44,7.84,7.27,18.3,8.49,31.4h-99.08Z"/>
  <path class="cls-1" d="M1696.18,228.34c-4.14,0-6.85-.95-8.15-2.85-1.28-1.9-1.93-4.42-1.93-7.55v-103.62c0-17.02-6.54-29.56-19.62-37.62-13.19-8.06-30.36-12.09-51.5-12.09-18.22,0-34.24,4.35-48.05,13.05-13.81,8.7-20.99,24.16-21.55,46.39h28.22c1.12-9.34,3.52-16.37,7.2-21.1,6.6-8.55,17.77-12.82,33.53-12.82,13.63,0,24.1,2.33,31.42,6.99,7.31,4.67,10.97,12.17,10.97,22.51,0,5.06-.67,8.93-2.01,11.63-2.35,4.92-7,7.82-13.94,8.72l-48.2,6.04c-16.91,2.13-30.56,7.77-40.98,16.94-10.41,9.17-15.62,22.08-15.62,38.74,0,15.21,5.29,27.87,15.87,37.99,10.58,10.12,24.21,15.18,40.9,15.18,13.88,0,26.59-2.96,38.12-8.9,11.53-5.93,20.38-12.93,26.53-20.99,1.02,7.17,2.75,12.71,5.21,16.63,4.7,7.38,12.26,11.08,22.67,11.08,4.25,0,7.61-.17,10.08-.5,2.46-.33,6.04-1.18,10.75-2.52v-22.33c-1.91.33-3.69.59-5.38.75-1.67.17-3.19.25-4.53.25ZM1655.88,181.73c0,18.56-8.39,31.91-25.19,40.08-9.97,4.92-20.26,7.37-30.9,7.37-8.74,0-16.3-2.51-22.67-7.53-6.38-5.03-9.58-11.9-9.58-20.61,0-11.51,4.68-19.88,14.02-25.14,5.52-3.13,13.75-5.42,24.71-6.87l18.26-2.35c5.59-.67,11.28-1.79,17.1-3.37,5.8-1.57,10.56-3.53,14.24-5.89v24.31Z"/>
  <path class="cls-1" d="M1863.74,88.04c-14.26-15.62-31.6-23.43-52.03-23.43-13.81,0-25.82,3.36-36.03,10.07-7.18,4.48-13.81,10.81-19.87,18.98v-23.85h-29.56v250.72h30.23v-91.86c6.63,8.18,12.65,13.94,18.05,17.29,9.21,5.94,20.62,8.9,34.22,8.9,17.3,0,32.48-5.32,45.52-15.95,20.57-16.8,30.85-44.78,30.85-83.97,0-28.99-7.12-51.3-21.37-66.92ZM1839.98,210.79c-9.38,11.81-21.15,17.72-35.3,17.72-20.89,0-35.27-9.29-43.13-27.88-4.16-9.74-6.24-21.55-6.24-35.43,0-17.24,2.08-31.46,6.24-42.66,7.75-20.93,22.12-31.4,43.13-31.4s35.28,9.91,43.14,29.72c4.16,10.3,6.24,22.62,6.24,36.95,0,23.51-4.7,41.17-14.07,52.98Z"/>
  <path class="cls-1" d="M268.46,34.75c-65.95,0-119.76,51.74-123.23,116.76h55.9c3.58,0,6.47,2.89,6.47,6.59s-2.89,6.47-6.47,6.47h-55.9c3.47,65.02,57.28,116.87,123.23,116.87s123.35-55.32,123.35-123.34-55.21-123.35-123.35-123.35Z"/>
  <path class="cls-1" d="M90.32,151.51h54.86c-3.23-37.19-34.42-66.29-72.41-66.29C32.57,85.22,0,117.79,0,158.1s32.57,72.76,72.76,72.76c37.99,0,69.18-29.1,72.41-66.29h-54.86c-3.7,0-6.58-2.89-6.58-6.47s2.89-6.59,6.58-6.59Z"/>
</svg>