<?xml version="1.0" encoding="UTF-8"?>
<svg id="Capa_1" data-name="Capa 1" xmlns="http://www.w3.org/2000/svg" viewBox="0 0 552.03 190.45">
  <defs>
    <style>
      .cls-1 {
        fill: #050006;
      }
    </style>
  </defs>
  <path class="cls-1" d="M83.78,0c-25.55,0-45.9,8.91-61.05,26.71C7.58,44.52,0,68.44,0,98.49c0,28.04,7.19,50.38,21.57,67.02,14.37,16.63,33.78,24.95,58.23,24.95,29.3,0,50.93-9.4,64.86-28.2,13.93-18.8,20.9-42.62,20.9-71.45s-7.91-52.4-23.72-67.76C126.02,7.68,106.67,0,83.78,0ZM123.17,141.95c-7.33,15.07-20.84,22.61-40.55,22.61-17.95,0-31.06-6.34-39.32-19.02-8.26-12.68-12.39-28.53-12.39-47.56s4.13-36.7,12.39-50.72c8.26-14.02,21.47-21.03,39.65-21.03,20.48,0,34.91,8.23,43.28,24.69,5.29,10.46,7.93,24.03,7.93,40.71,0,18.47-3.66,35.24-10.99,50.31Z"/>
  <rect class="cls-1" x="189.4" width="30.07" height="190.45"/>
  <g>
    <path class="cls-1" d="M456.8,0c-50.91,0-92.46,39.95-95.14,90.14h43.16c2.76,0,4.99,2.23,4.99,5.09s-2.23,4.99-4.99,4.99h-43.16c2.68,50.2,44.22,90.23,95.14,90.23s95.23-42.71,95.23-95.22S509.4,0,456.8,0Z"/>
    <path class="cls-1" d="M319.27,90.14h42.35c-2.5-28.71-26.57-51.18-55.91-51.18-31.03,0-56.17,25.14-56.17,56.26s25.14,56.17,56.17,56.17c29.33,0,53.41-22.47,55.91-51.18h-42.35c-2.85,0-5.08-2.23-5.08-4.99s2.23-5.09,5.08-5.09Z"/>
  </g>
</svg>